<?xml version="1.0" standalone="no"?>
<!DOCTYPE svg PUBLIC "-//W3C//DTD SVG 20010904//EN"
 "http://www.w3.org/TR/2001/REC-SVG-20010904/DTD/svg10.dtd">
<svg version="1.0" xmlns="http://www.w3.org/2000/svg"
 width="500.000000pt" height="500.000000pt" viewBox="0 0 500.000000 500.000000"
 preserveAspectRatio="xMidYMid meet">

<g transform="translate(0.000000,500.000000) scale(0.100000,-0.100000)"
fill="#000000" stroke="none">
<path d="M2335 4994 c-337 -28 -660 -116 -940 -255 -77 -39 -153 -79 -170 -90
-233 -151 -330 -226 -477 -372 -322 -319 -529 -671 -653 -1112 -217 -769 -42
-1606 467 -2237 372 -461 929 -788 1511 -888 643 -110 1294 33 1839 402 236
159 496 421 655 658 74 112 86 133 162 283 308 607 350 1300 121 1962 -61 176
-181 410 -301 585 -161 236 -464 526 -712 680 -300 188 -664 321 -1002 365
-120 16 -406 27 -500 19z m-720 -1174 l44 -69 -43 -98 c-52 -116 -85 -220
-131 -403 -34 -137 -68 -318 -61 -329 2 -3 38 -5 79 -3 l75 4 7 46 c8 59 58
243 92 342 28 82 113 260 125 260 4 0 20 -19 37 -43 16 -24 36 -49 44 -56 13
-10 11 -21 -18 -84 -18 -40 -46 -113 -63 -163 -32 -96 -79 -291 -71 -297 2 -2
47 -7 100 -11 l96 -6 17 62 c17 60 92 223 121 261 13 18 17 17 70 -23 31 -23
55 -45 53 -48 -2 -4 -21 -41 -42 -82 -35 -69 -80 -180 -74 -186 2 -1 49 -11
105 -23 57 -11 115 -27 131 -35 15 -8 52 -19 82 -24 30 -6 66 -15 80 -20 29
-11 115 6 220 44 36 13 103 31 150 40 47 8 86 17 87 18 6 6 -41 125 -75 190
-20 39 -38 74 -40 78 -2 3 22 25 53 48 53 40 57 41 70 23 30 -39 105 -201 121
-261 l17 -62 96 6 c53 4 98 8 100 10 15 14 -77 336 -130 453 -16 35 -29 68
-29 73 0 15 82 119 92 116 11 -4 99 -194 128 -278 12 -36 39 -132 60 -215 l37
-150 69 -6 c38 -3 72 -3 76 1 10 7 -12 140 -46 287 -39 168 -90 330 -141 443
l-44 101 45 71 c25 38 47 68 49 66 10 -10 119 -261 146 -336 59 -168 139 -520
139 -614 0 -31 4 -38 23 -42 12 -3 60 -12 107 -21 155 -30 170 -51 79 -109
l-60 -39 -84 12 c-46 7 -92 10 -103 7 -10 -4 -56 -13 -101 -21 -114 -20 -322
-76 -316 -85 3 -4 35 -20 72 -35 l66 -26 81 21 c60 17 95 21 135 16 59 -7 136
-44 172 -82 l22 -24 -26 0 c-15 0 -27 -4 -27 -10 0 -5 11 -10 25 -10 35 0 31
-10 -17 -45 -93 -66 -166 -78 -282 -45 l-79 22 -69 -27 c-37 -15 -70 -30 -73
-35 -6 -9 201 -65 316 -85 45 -8 91 -17 101 -21 11 -3 57 0 103 7 l84 12 66
-43 c61 -40 65 -44 50 -60 -16 -18 -98 -42 -185 -55 -77 -11 -80 -13 -80 -53
0 -112 -96 -509 -165 -683 -19 -47 -54 -128 -78 -180 l-44 -94 -46 72 -46 72
44 101 c51 113 102 275 141 443 34 147 56 280 46 287 -4 4 -38 4 -76 1 l-69
-6 -38 -150 c-42 -168 -46 -182 -83 -280 -30 -80 -98 -215 -107 -215 -9 0 -89
107 -89 118 0 5 13 38 29 73 53 117 145 439 130 453 -2 2 -47 6 -100 10 l-96
6 -17 -62 c-16 -60 -91 -222 -121 -262 -14 -18 -17 -17 -70 24 -30 23 -55 44
-55 45 0 2 18 38 41 79 23 42 49 103 59 135 l18 59 -92 17 c-50 10 -107 24
-126 32 -19 8 -74 25 -122 37 l-88 22 -88 -22 c-48 -11 -98 -26 -110 -33 -12
-6 -68 -21 -124 -32 -57 -12 -104 -22 -106 -23 -9 -9 85 -227 109 -250 16 -17
11 -24 -47 -67 -53 -39 -56 -40 -69 -22 -30 40 -105 201 -121 261 l-17 62 -91
-6 c-50 -3 -96 -7 -102 -9 -8 -2 -1 -45 22 -135 38 -150 63 -226 108 -325 l32
-70 -45 -57 c-24 -32 -47 -58 -50 -58 -13 0 -101 189 -131 280 -33 101 -90
323 -90 351 0 15 -12 18 -76 21 -42 2 -78 0 -80 -3 -7 -11 27 -192 61 -329 45
-181 87 -310 135 -414 l40 -86 -46 -72 -47 -73 -27 57 c-48 99 -117 271 -145
358 -52 168 -115 462 -115 542 0 40 -3 42 -80 53 -87 13 -169 37 -185 55 -15
16 -11 20 50 60 l66 43 77 -11 c67 -10 91 -9 186 8 146 27 349 81 339 91 -4 4
-37 19 -72 34 l-64 26 -77 -20 c-42 -12 -91 -21 -110 -21 -56 0 -136 31 -182
71 l-43 38 33 1 c40 0 34 20 -6 20 -26 1 -26 2 17 39 47 42 121 71 179 71 20
0 70 -9 112 -21 l77 -20 64 26 c35 15 68 30 72 34 10 10 -207 68 -318 86 -44
8 -88 17 -97 20 -10 4 -56 1 -102 -5 l-85 -13 -66 43 c-55 36 -63 45 -53 57
17 21 50 32 143 49 134 24 125 20 125 62 0 89 78 436 134 601 26 75 146 351
153 351 2 0 23 -31 48 -70z"/>
<path d="M1850 2767 c0 -2 28 -15 63 -27 34 -12 106 -45 159 -71 l98 -49 55
31 c30 17 55 34 55 38 0 12 -65 29 -191 50 -133 22 -239 35 -239 28z"/>
<path d="M3065 2763 c-171 -22 -345 -59 -345 -74 0 -4 25 -21 55 -38 l55 -31
83 41 c45 23 118 57 162 75 79 33 77 38 -10 27z"/>
<path d="M2414 2586 c-61 -29 -72 -38 -75 -62 -9 -63 -1 -74 74 -110 39 -19
78 -34 87 -34 9 0 47 15 86 34 75 36 87 54 76 112 -4 21 -19 33 -76 60 -39 19
-77 34 -86 34 -9 0 -47 -15 -86 -34z"/>
<path d="M1905 2570 c-4 -6 -29 -22 -56 -35 -27 -14 -49 -29 -49 -34 0 -5 28
-25 63 -44 l62 -34 70 34 c39 18 71 37 72 41 3 6 -135 82 -150 82 -3 0 -9 -5
-12 -10z"/>
<path d="M3000 2544 c-36 -18 -65 -38 -65 -44 0 -6 31 -26 69 -44 l69 -34 64
35 c34 19 63 39 63 43 0 7 -127 82 -133 78 -1 0 -31 -16 -67 -34z"/>
<path d="M2080 2335 c-47 -24 -118 -56 -159 -71 -41 -15 -69 -30 -63 -32 35
-11 422 61 422 79 0 8 -99 69 -110 68 -3 0 -43 -20 -90 -44z"/>
<path d="M2773 2349 c-29 -17 -53 -34 -53 -38 0 -18 411 -93 426 -78 3 2 -22
14 -55 26 -32 12 -105 44 -160 71 -56 28 -103 50 -104 50 -1 0 -26 -14 -54
-31z"/>
</g>
</svg>
